<svg id="Capa_1" data-name="Capa 1" xmlns="http://www.w3.org/2000/svg" viewBox="0 0 337 161"><defs><style>.cls-1{fill:#424343;}.cls-2{fill:#d8b252;}</style></defs><title>Mesa de trabajo 2</title><path class="cls-1" d="M9.2,139.3a15.21,15.21,0,0,1,1-5.45,14.74,14.74,0,0,1,3-4.85A15.25,15.25,0,0,1,18,125.53a15,15,0,0,1,6.42-1.33A14.51,14.51,0,0,1,31.85,126a12,12,0,0,1,4.68,4.79l-5.39,3.77a6.36,6.36,0,0,0-1.3-2,7.29,7.29,0,0,0-3.66-2,9.91,9.91,0,0,0-1.92-.19,7.25,7.25,0,0,0-3.51.81,7.57,7.57,0,0,0-2.48,2.1,8.66,8.66,0,0,0-1.46,2.91,11.89,11.89,0,0,0-.47,3.29A10.86,10.86,0,0,0,16.9,143a9.19,9.19,0,0,0,1.6,3A7.8,7.8,0,0,0,21,148a7.17,7.17,0,0,0,3.31.75,8.38,8.38,0,0,0,1.95-.24,7.84,7.84,0,0,0,1.92-.73,6.62,6.62,0,0,0,1.69-1.28,6,6,0,0,0,1.24-1.95l5.73,3.38a8.91,8.91,0,0,1-2,3,12.66,12.66,0,0,1-3.1,2.22A16.4,16.4,0,0,1,28,154.53a16.74,16.74,0,0,1-3.85.47,13.56,13.56,0,0,1-6.05-1.35,15.43,15.43,0,0,1-4.75-3.57A16.21,16.21,0,0,1,10.29,145,15.7,15.7,0,0,1,9.2,139.3Z"/><path class="cls-1" d="M51.67,137.38v17.36h-7V124.38h5.47l14.16,17.83V124.38h7v30.36H65.66Z"/><path class="cls-1" d="M96.71,154.74V124.38h19.76v2H98.89v12.07h14.93v1.88H98.89v14.45Z"/><path class="cls-1" d="M126.39,154.74V124.38h2.18v30.36Z"/><path class="cls-1" d="M143,128.48v26.26H140.8V124.38h1.67l21.3,26.73V124.38H166v30.36h-2Z"/><path class="cls-1" d="M187.68,124.38h1.88l12.83,30.36h-2.31l-4.23-10h-14.5l-4.23,10h-2.36Zm7.57,18.56L188.62,127l-6.76,15.91Z"/><path class="cls-1" d="M213.47,128.48v26.26h-2.18V124.38H213l21.3,26.73V124.38h2.18v30.36h-2Z"/><path class="cls-1" d="M245.93,153l21.6-26.61h-21.3v-2H270.1v1.79l-21.43,26.61H270v2H245.93Z"/><path class="cls-1" d="M289.26,124.38h1.88L304,154.74h-2.31l-4.23-10h-14.5l-4.23,10h-2.36Zm7.57,18.56L290.2,127l-6.76,15.91Z"/><path class="cls-1" d="M330.06,129.42q-2.94-3.28-8.34-3.29-4.44,0-6.48,1.69a5.62,5.62,0,0,0-2,4.55,5.13,5.13,0,0,0,.51,2.42,4.52,4.52,0,0,0,1.61,1.65,10.66,10.66,0,0,0,2.76,1.15c1.11.32,2.45.64,4,1s3.1.72,4.42,1.13a12.46,12.46,0,0,1,3.38,1.56,6.63,6.63,0,0,1,2.14,2.31,7,7,0,0,1,.75,3.38,7.39,7.39,0,0,1-.79,3.51,7.11,7.11,0,0,1-2.23,2.5,10.52,10.52,0,0,1-3.42,1.52,17.77,17.77,0,0,1-4.42.51,17.08,17.08,0,0,1-12-4.53l1.15-1.76a13.91,13.91,0,0,0,4.71,3.19,15.92,15.92,0,0,0,6.24,1.18,11.35,11.35,0,0,0,6.22-1.46,4.89,4.89,0,0,0,2.25-4.4,5.06,5.06,0,0,0-.6-2.55,5.47,5.47,0,0,0-1.77-1.82,12,12,0,0,0-3-1.32c-1.19-.37-2.59-.73-4.19-1.07s-3.06-.71-4.3-1.09a11.3,11.3,0,0,1-3.12-1.46,5.86,5.86,0,0,1-1.9-2.11,6.76,6.76,0,0,1-.64-3.13,8,8,0,0,1,.79-3.63,7.71,7.71,0,0,1,2.2-2.68,10,10,0,0,1,3.38-1.64,16,16,0,0,1,4.36-.56A14.61,14.61,0,0,1,327,125a12.25,12.25,0,0,1,4.19,2.67Z"/><path class="cls-2" d="M170.23,93.84V62.57l34.14,31.27H210V52.59l4,5.55h5.39L207.89,44,196.4,58.14h5.39l4-5.55v37L171.45,58.19H166v31.4a41.28,41.28,0,1,1,24.31-76,39.85,39.85,0,0,1,13.22,14.55h5.33a45.08,45.08,0,0,0-16-18.11,46.31,46.31,0,0,0-24.75-7.14,45.5,45.5,0,0,0-1.49,91Z"/></svg>