<svg id="Capa_1" data-name="Capa 1" xmlns="http://www.w3.org/2000/svg" viewBox="0 0 80 90"><defs><style>.cls-1{fill:#d6b052;}</style></defs><title>comercio-interrancional</title><path class="cls-1" d="M50.32,59.48a62.84,62.84,0,0,0,1.57-13.15h14a25.86,25.86,0,0,1-4.39,13.15ZM40,70.89c-2.21,0-4.48-2.6-6.24-7.13-.2-.52-.39-1.06-.58-1.62H46.8C45,67.63,42.42,70.89,40,70.89ZM20.61,62.14h5.33a1.33,1.33,0,0,0,0-2.66H18.55a25.75,25.75,0,0,1-4.41-13.15h14a55.37,55.37,0,0,0,3.17,18.4,21.58,21.58,0,0,0,3,5.53,26,26,0,0,1-13.69-8.12ZM17,33.13a26.45,26.45,0,0,1,1.56-2.61H29.68a62.18,62.18,0,0,0-1.57,13.15h-14A25.72,25.72,0,0,1,17,33.13Zm23-14c2.2,0,4.48,2.6,6.24,7.12.2.53.39,1.07.57,1.63H33.19C35,22.37,37.58,19.11,40,19.11ZM30.77,43.67a58.25,58.25,0,0,1,1.65-13.15H47.58a58.7,58.7,0,0,1,1.65,13.15Zm0,2.66H49.23a58.25,58.25,0,0,1-1.65,13.15H32.41a59.31,59.31,0,0,1-1.64-13.15ZM59.38,27.86H53.9a1.33,1.33,0,0,0,0,2.66h7.55a25.65,25.65,0,0,1,4.4,13.15h-14a55.1,55.1,0,0,0-3.18-18.4,21.27,21.27,0,0,0-3-5.53,25.92,25.92,0,0,1,13.68,8.12Zm-5,38.64a1.33,1.33,0,0,0,.74,2.43,1.31,1.31,0,0,0,.74-.22,28.68,28.68,0,0,0,7.31-7.09l.06-.08a28.51,28.51,0,0,0,.07-33,1.19,1.19,0,0,0-.23-.31A28.52,28.52,0,0,0,28,19.08a1.33,1.33,0,1,0,1.12,2.41,25.23,25.23,0,0,1,5.15-1.75,21.41,21.41,0,0,0-3,5.53c-.32.82-.61,1.69-.88,2.59H20.6a25.85,25.85,0,0,1,4-3.71A1.33,1.33,0,1,0,23.08,22a28.87,28.87,0,0,0-6.26,6.32l-.11.16a27.93,27.93,0,0,0-2.09,3.42A28.7,28.7,0,0,0,11.45,45a28.39,28.39,0,0,0,5.21,16.42,1.19,1.19,0,0,0,.23.31A28.55,28.55,0,0,0,51,71.36a1.33,1.33,0,0,0-1-2.46,24.94,24.94,0,0,1-4.27,1.36,21.11,21.11,0,0,0,3-5.53c.32-.82.62-1.69.89-2.59h9.8a26,26,0,0,1-5,4.36Z"/><path class="cls-1" d="M68.07,19.67,47.9,8a1.33,1.33,0,1,0-1.33,2.31L66.74,22a1.34,1.34,0,0,0,.66.18,1.35,1.35,0,0,0,1.16-.66,1.34,1.34,0,0,0-.49-1.82Z"/><path class="cls-1" d="M6.68,56.64V33.36a1.33,1.33,0,1,0-2.65,0V56.64a1.33,1.33,0,1,0,2.65,0Z"/><path class="cls-1" d="M66.74,68,46.57,79.67A1.33,1.33,0,0,0,47.9,82L68.07,70.33A1.33,1.33,0,0,0,66.74,68Z"/><path class="cls-1" d="M73.31,33.36V56.64a1.33,1.33,0,0,0,2.66,0V33.36a1.33,1.33,0,0,0-2.66,0Z"/><path class="cls-1" d="M33.43,79.67,13.25,68a1.33,1.33,0,1,0-1.32,2.3L32.1,82a1.33,1.33,0,0,0,.66.17,1.3,1.3,0,0,0,1.15-.66,1.33,1.33,0,0,0-.48-1.82Z"/><path class="cls-1" d="M12.6,22.15a1.34,1.34,0,0,0,.66-.18L33.43,10.33A1.33,1.33,0,0,0,32.1,8L11.93,19.67a1.33,1.33,0,0,0-.49,1.81,1.34,1.34,0,0,0,1.16.67Z"/><path class="cls-1" d="M40,2.3A2.7,2.7,0,1,1,37.3,5,2.7,2.7,0,0,1,40,2.3Zm0,8.05A5.36,5.36,0,1,0,34.64,5,5.36,5.36,0,0,0,40,10.35Z"/><path class="cls-1" d="M7.69,26.35a2.7,2.7,0,1,1-1-3.69,2.7,2.7,0,0,1,1,3.69Zm.34-6a5.35,5.35,0,1,0,2,7.32,5.35,5.35,0,0,0-2-7.32Z"/><path class="cls-1" d="M6.7,67.34a2.7,2.7,0,1,1,1-3.69,2.69,2.69,0,0,1-1,3.69Zm-4-7a5.36,5.36,0,0,0,2.68,10A5.28,5.28,0,0,0,8,69.64a5.36,5.36,0,0,0-5.35-9.28Z"/><path class="cls-1" d="M40,87.7A2.7,2.7,0,1,1,42.7,85,2.7,2.7,0,0,1,40,87.7Zm0-8A5.36,5.36,0,1,0,45.35,85,5.36,5.36,0,0,0,40,79.65Z"/><path class="cls-1" d="M77,66.35h0a2.7,2.7,0,1,1-1-3.69,2.7,2.7,0,0,1,1,3.69Zm.34-6A5.36,5.36,0,1,0,72,69.64a5.3,5.3,0,0,0,2.67.72,5.14,5.14,0,0,0,1.4-.19,5.36,5.36,0,0,0,1.29-9.81Z"/><path class="cls-1" d="M73.29,22.66a2.7,2.7,0,0,1,1.35-.36,2.8,2.8,0,0,1,.7.09A2.7,2.7,0,0,1,77,23.65h0a2.7,2.7,0,1,1-3.69-1Zm1.36,7.69a5.34,5.34,0,0,0,5.17-4,5.31,5.31,0,0,0-.54-4.07h0A5.37,5.37,0,0,0,76,19.82a5.32,5.32,0,0,0-4.07.54,5.35,5.35,0,0,0,2.69,10Z"/></svg>