<svg id="Capa_1" data-name="Capa 1" xmlns="http://www.w3.org/2000/svg" viewBox="0 0 52 52"><defs><style>.cls-1{fill:#fff;}</style></defs><title>dirreccion</title><path class="cls-1" d="M33.76,23.84a7.55,7.55,0,1,1-7.55-7.55A7.55,7.55,0,0,1,33.76,23.84Zm18.13,6.25A25.85,25.85,0,0,1,32,51.52c-1.32.3-2.67.48-4,.71H24.5c-.71-.12-1.42-.25-2.13-.35A25.88,25.88,0,0,1,1,32.07C.67,30.72.48,29.34.24,28V24.49c.18-1,.34-2.11.53-3.16a25.94,25.94,0,0,1,51.12,8.76ZM39.38,23.84a13.18,13.18,0,1,0-26.35,0c0,7.28,13.18,18,13.18,18S39.38,31.12,39.38,23.84Z"/></svg>