<svg id="Capa_1" data-name="Capa 1" xmlns="http://www.w3.org/2000/svg" viewBox="0 0 68 92"><defs><style>.cls-1{fill:#d6b052;}</style></defs><title>Artboard 3</title><path class="cls-1" d="M9.62,91.64a5.33,5.33,0,0,1-.56,0,7.9,7.9,0,0,1-4-1.69l-.1-.07C3.09,88.58,1,87.12,0,84.42a7.69,7.69,0,0,1-.34-2.64V17.44C-.31,13,2.58,10,7.06,10h7.57a4.22,4.22,0,0,0,2.64-.86c2.12-1.54,4.25-3.06,6.38-4.58l3.83-2.74a8.52,8.52,0,0,1,9.94-.44,123.59,123.59,0,0,1,18.67,13.3,55.16,55.16,0,0,1,7.1,7.18c2.4,3,2.57,5.57.57,8.85a4.55,4.55,0,0,0-.42,4.05A3.92,3.92,0,0,0,65,36.84c2,1.33,4.14,3.85,3.07,8.29A34.6,34.6,0,0,1,56.88,63.64a34,34,0,0,1-17.69,8.07,35.08,35.08,0,0,1-18.49-2.4,3,3,0,0,0-2.81.16,3.41,3.41,0,0,0-1.37,2.89q0,3.08,0,6.15c0,2.08,0,4.15,0,6.23a6.93,6.93,0,0,1-2.15,5.13A6.81,6.81,0,0,1,9.62,91.64Zm-8-42.08H3.56V81.77a4.54,4.54,0,0,0,.12,1.36c.54,1.52,1.9,2.46,3.47,3.55l.09.07a4.61,4.61,0,0,0,2.09,1A3.06,3.06,0,0,0,11.71,87a3.06,3.06,0,0,0,.91-2.32c0-2.07,0-4.13,0-6.2s0-4.12,0-6.18a7.19,7.19,0,0,1,3.1-6.08,6.77,6.77,0,0,1,6.42-.52,30.82,30.82,0,0,0,16.47,2.15,30.09,30.09,0,0,0,15.71-7.17,30.86,30.86,0,0,0,9.92-16.49c.47-1.95,0-3.15-1.46-4.16A7.77,7.77,0,0,1,59.67,36a8.38,8.38,0,0,1,.78-7.27c1.15-1.88,1.09-2.7-.28-4.42a51.94,51.94,0,0,0-6.61-6.68A120.94,120.94,0,0,0,35.47,4.73,4.65,4.65,0,0,0,29.74,5L25.9,7.72c-2.12,1.51-4.25,3-6.36,4.56a8.27,8.27,0,0,1-4.93,1.6c-2.55,0-5.08,0-7.52,0S3.56,15.1,3.56,17.44V49.56Z"/></svg>