<svg id="Capa_1" data-name="Capa 1" xmlns="http://www.w3.org/2000/svg" viewBox="0 0 80 81"><defs><style>.cls-1{fill:#d6b052;}</style></defs><title>gestion-publica</title><path class="cls-1" d="M76.33,77.44H55V54.75a1.78,1.78,0,1,0-3.55,0V77.44h-4V62.34a1.78,1.78,0,0,0-1.78-1.78H34.08a1.78,1.78,0,0,0-1.78,1.78v15.1h-4V54.75a1.78,1.78,0,1,0-3.55,0V77.44H3.43V43.9h72.9V77.44Zm-40.47,0V64.11h8V77.44ZM9.12,35.37H70.64v5H9.12v-5ZM39.88,17.59A19,19,0,0,1,58.22,31.81H21.53A19,19,0,0,1,39.88,17.59Zm1.72-14h9V8.45h-9V3.56ZM78.11,40.34H74.2V33.59a1.78,1.78,0,0,0-1.78-1.78H61.88A22.49,22.49,0,0,0,41.6,14.1V12H52.38a1.78,1.78,0,0,0,1.78-1.78V1.78A1.78,1.78,0,0,0,52.38,0H39.82a1.78,1.78,0,0,0-1.77,1.78V14.11a22.48,22.48,0,0,0-20.17,17.7H7.34a1.78,1.78,0,0,0-1.78,1.78v6.75H1.65A1.78,1.78,0,0,0-.13,42.12v37.1A1.78,1.78,0,0,0,1.65,81H78.11a1.78,1.78,0,0,0,1.78-1.78V42.12a1.78,1.78,0,0,0-1.78-1.78Z"/><path class="cls-1" d="M54.86,48.2a1.87,1.87,0,0,0-.17-.31,1.72,1.72,0,0,0-.49-.49,1.51,1.51,0,0,0-.31-.16,1.6,1.6,0,0,0-.33-.11,2,2,0,0,0-.69,0,1.83,1.83,0,0,0-.33.11,1.51,1.51,0,0,0-.31.16,1.72,1.72,0,0,0-.49.49,1.87,1.87,0,0,0-.17.31,1.8,1.8,0,0,0-.1.33,2,2,0,0,0,0,.35,2.16,2.16,0,0,0,0,.35,2.07,2.07,0,0,0,.1.33,1.78,1.78,0,0,0,.17.3,1.44,1.44,0,0,0,.22.27,1.49,1.49,0,0,0,.27.23,1.51,1.51,0,0,0,.31.16,1.8,1.8,0,0,0,.33.1,1.51,1.51,0,0,0,.69,0,1.59,1.59,0,0,0,.33-.1,1.51,1.51,0,0,0,.31-.16,1.49,1.49,0,0,0,.27-.23,1.44,1.44,0,0,0,.22-.27,1.78,1.78,0,0,0,.17-.3,2.07,2.07,0,0,0,.1-.33,2.16,2.16,0,0,0,0-.35,2,2,0,0,0,0-.35,1.8,1.8,0,0,0-.1-.33Z"/><path class="cls-1" d="M28.18,48.2a1.3,1.3,0,0,0-.16-.31,1.72,1.72,0,0,0-.49-.49,2.25,2.25,0,0,0-.64-.27,2,2,0,0,0-.69,0,1.93,1.93,0,0,0-.34.11,1.73,1.73,0,0,0-.3.16,1.44,1.44,0,0,0-.27.22,1.13,1.13,0,0,0-.22.27,1.87,1.87,0,0,0-.17.31,1.8,1.8,0,0,0-.1.33,2,2,0,0,0,0,.35,1.77,1.77,0,0,0,.52,1.25,1.49,1.49,0,0,0,.27.23,1.73,1.73,0,0,0,.3.16,1.91,1.91,0,0,0,.34.1,1.51,1.51,0,0,0,.69,0,1.91,1.91,0,0,0,.64-.26,1.49,1.49,0,0,0,.27-.23,1.77,1.77,0,0,0,.52-1.25,2,2,0,0,0,0-.35,1.83,1.83,0,0,0-.11-.33Z"/><path class="cls-1" d="M18,54.3H11.5V50.21H18V54.3Zm1.78-7.64h-10a1.78,1.78,0,0,0-1.78,1.77v7.65a1.78,1.78,0,0,0,1.78,1.78h10a1.78,1.78,0,0,0,1.77-1.78V48.43a1.77,1.77,0,0,0-1.77-1.77Z"/><path class="cls-1" d="M18,70.16H11.5V66.07H18v4.09Zm1.78-7.64h-10A1.78,1.78,0,0,0,7.94,64.3v7.64a1.78,1.78,0,0,0,1.78,1.78h10a1.78,1.78,0,0,0,1.77-1.78V64.3a1.77,1.77,0,0,0-1.77-1.78Z"/><path class="cls-1" d="M43.13,54.3h-6.5V50.21h6.5V54.3Zm1.77-7.64h-10a1.77,1.77,0,0,0-1.78,1.77v7.65a1.78,1.78,0,0,0,1.78,1.78h10a1.78,1.78,0,0,0,1.78-1.78V48.43a1.77,1.77,0,0,0-1.78-1.77Z"/><path class="cls-1" d="M68.26,54.3H61.77V50.21h6.49V54.3ZM70,46.66H60a1.77,1.77,0,0,0-1.77,1.77v7.65A1.78,1.78,0,0,0,60,57.86H70a1.78,1.78,0,0,0,1.78-1.78V48.43A1.78,1.78,0,0,0,70,46.66Z"/><path class="cls-1" d="M68.26,70.16H61.77V66.07h6.49v4.09ZM70,62.52H60a1.77,1.77,0,0,0-1.77,1.78v7.64A1.78,1.78,0,0,0,60,73.72H70a1.78,1.78,0,0,0,1.78-1.78V64.3A1.78,1.78,0,0,0,70,62.52Z"/></svg>