<svg id="Capa_1" data-name="Capa 1" xmlns="http://www.w3.org/2000/svg" viewBox="0 0 36 45"><defs><style>.cls-1{fill:#fff;}</style></defs><title>informe</title><path class="cls-1" d="M24.74.35A1.07,1.07,0,0,0,24,0H6.41A5.94,5.94,0,0,0,.49,5.9V39.1A5.94,5.94,0,0,0,6.41,45H30.23a5.93,5.93,0,0,0,5.91-5.9V12.74a1.18,1.18,0,0,0-.31-.76Zm.32,3.49,7.42,7.79H27.66A2.59,2.59,0,0,1,25.06,9Zm5.17,39H6.41A3.76,3.76,0,0,1,2.67,39.1V5.9A3.76,3.76,0,0,1,6.41,2.17H22.88V9a4.76,4.76,0,0,0,4.78,4.76H34V39.1a3.76,3.76,0,0,1-3.74,3.73Zm0,0"/><path class="cls-1" d="M27.26,35.33H9.37a1.09,1.09,0,0,0,0,2.17H27.28a1.09,1.09,0,1,0,0-2.17Zm0,0"/><path class="cls-1" d="M17.53,31.42a1.06,1.06,0,0,0,.79.35,1.08,1.08,0,0,0,.79-.35l6.37-6.83a1.09,1.09,0,1,0-1.59-1.48l-4.48,4.81V16.05a1.09,1.09,0,0,0-2.18,0V27.92l-4.48-4.81a1.08,1.08,0,0,0-1.53-.06,1.09,1.09,0,0,0-.05,1.54Zm0,0"/></svg>