<svg id="Capa_1" data-name="Capa 1" xmlns="http://www.w3.org/2000/svg" viewBox="0 0 497 47"><defs><style>.cls-1{fill:#fff;}</style></defs><title>logo</title><path class="cls-1" d="M-.43,22.9a23.53,23.53,0,0,1,1.57-8.37,22.93,22.93,0,0,1,4.6-7.46A23.35,23.35,0,0,1,13.1,1.75,23,23,0,0,1,23-.28,22.2,22.2,0,0,1,34.34,2.54,18.15,18.15,0,0,1,41.53,9.9l-8.27,5.77a9.75,9.75,0,0,0-2-3.05,10.67,10.67,0,0,0-2.66-2A11,11,0,0,0,25.64,9.6a15.17,15.17,0,0,0-3-.3,11.13,11.13,0,0,0-5.38,1.25,11.94,11.94,0,0,0-3.81,3.22,13.22,13.22,0,0,0-2.23,4.47,17.78,17.78,0,0,0-.73,5.05,16.7,16.7,0,0,0,.86,5.32,14.17,14.17,0,0,0,2.46,4.53,11.74,11.74,0,0,0,3.88,3.12,11,11,0,0,0,5.09,1.15,13.1,13.1,0,0,0,3-.36,11.79,11.79,0,0,0,3-1.12,10.28,10.28,0,0,0,2.59-2,9.31,9.31,0,0,0,1.91-3l8.8,5.18a13.7,13.7,0,0,1-3.12,4.6,19.31,19.31,0,0,1-4.76,3.42A26.18,26.18,0,0,1,22.55,47a20.86,20.86,0,0,1-9.29-2.07A23.71,23.71,0,0,1,6,39.45,25.12,25.12,0,0,1,1.24,31.7,24.36,24.36,0,0,1-.43,22.9Z"/><path class="cls-1" d="M64.78,19.94V46.61H54V0h8.4L84.15,27.36V0H94.92V46.61H86.25Z"/><path class="cls-1" d="M133.93,46.61V0h30.34V3h-27V21.52H160.2v2.89H137.28v22.2Z"/><path class="cls-1" d="M179.5,46.61V0h3.35V46.61Z"/><path class="cls-1" d="M205,6.28V46.61h-3.34V0h2.56l32.7,41V0h3.35V46.61h-3.09Z"/><path class="cls-1" d="M273.61,0h2.89l19.7,46.63h-3.54l-6.51-15.37H263.89l-6.5,15.37h-3.61Zm11.62,28.5L275.06,4.05,264.68,28.48Z"/><path class="cls-1" d="M313.21,6.28V46.61h-3.35V0h2.56l32.71,41V0h3.34V46.61h-3.08Z"/><path class="cls-1" d="M363.05,43.85,396.22,3H363.51V0h36.65V2.74l-32.9,40.84H400v3h-37Z"/><path class="cls-1" d="M429.58,0h2.89l19.7,46.63h-3.55l-6.5-15.37H419.86l-6.5,15.37h-3.61Zm11.62,28.5L431,4.05,420.65,28.48Z"/><path class="cls-1" d="M492.23,7.73q-4.53-5.05-12.81-5.06-6.82,0-9.95,2.6a8.62,8.62,0,0,0-3.12,7,7.87,7.87,0,0,0,.79,3.71,6.78,6.78,0,0,0,2.47,2.53,16.12,16.12,0,0,0,4.23,1.77c1.71.48,3.77,1,6.17,1.51s4.77,1.11,6.8,1.74a19.83,19.83,0,0,1,5.19,2.4,10.08,10.08,0,0,1,3.28,3.55,10.64,10.64,0,0,1,1.15,5.18A11.37,11.37,0,0,1,495.22,40a10.83,10.83,0,0,1-3.42,3.84,15.87,15.87,0,0,1-5.25,2.33,27,27,0,0,1-6.8.79,26.21,26.21,0,0,1-18.45-7l1.77-2.69a21.43,21.43,0,0,0,7.23,4.89,24.42,24.42,0,0,0,9.58,1.8q6.11,0,9.56-2.23a7.51,7.51,0,0,0,3.45-6.76,7.8,7.8,0,0,0-.92-3.91,8.33,8.33,0,0,0-2.73-2.79,18,18,0,0,0-4.56-2q-2.76-.84-6.44-1.64T471.64,23a17.33,17.33,0,0,1-4.79-2.24,8.85,8.85,0,0,1-2.92-3.25,10.31,10.31,0,0,1-1-4.79,12.31,12.31,0,0,1,1.21-5.58A11.81,11.81,0,0,1,467.54,3,15.18,15.18,0,0,1,472.72.5a25,25,0,0,1,6.7-.85A22.59,22.59,0,0,1,487.5,1a19,19,0,0,1,6.44,4.1Z"/></svg>