<svg id="Capa_1" data-name="Capa 1" xmlns="http://www.w3.org/2000/svg" viewBox="0 0 84 84"><defs><style>.cls-1{fill:#d6b052;}</style></defs><title>macroeconomia</title><path class="cls-1" d="M35,61.61A26.57,26.57,0,0,1,8.58,32.22h5.65a5.59,5.59,0,0,0,5.39,4.2,5.52,5.52,0,0,0,2.83-.8L28.81,42a5.59,5.59,0,1,0,10.41,2.82,5.51,5.51,0,0,0-.8-2.82l9.17-9.17a5.51,5.51,0,0,0,2.82.8A5.6,5.6,0,0,0,56,28a5.54,5.54,0,0,0-.79-2.83l3.05-3.05A26.57,26.57,0,0,1,35,61.61Zm-15.4-28a2.8,2.8,0,1,1,2.8-2.8,2.8,2.8,0,0,1-2.8,2.8Zm14,8.39a2.8,2.8,0,1,1-2.8,2.8,2.81,2.81,0,0,1,2.8-2.8Zm14-14a2.8,2.8,0,1,1,2.8,2.8,2.8,2.8,0,0,1-2.8-2.8ZM35,8.43A26.55,26.55,0,0,1,56.73,19.72l-3.5,3.5a5.49,5.49,0,0,0-2.82-.8,5.6,5.6,0,0,0-5.6,5.6,5.49,5.49,0,0,0,.8,2.82L36.44,40a5.42,5.42,0,0,0-5.65,0l-6.36-6.37a5.5,5.5,0,0,0,.79-2.82,5.58,5.58,0,0,0-11-1.4H9a26.62,26.62,0,0,1,26-21Zm0-2.8A29.39,29.39,0,1,0,64.41,35,29.39,29.39,0,0,0,35,5.63Z"/><path class="cls-1" d="M70,11.23a2.8,2.8,0,1,1,2.79-2.8A2.8,2.8,0,0,1,70,11.23ZM61.2,53.71c-.44.61-.9,1.22-1.38,1.8l-.43.5c-.43.49-.87,1-1.33,1.45l-.6.6c-.47.46-1,.9-1.45,1.33l-.5.43c-.58.48-1.19.94-1.8,1.38a32.24,32.24,0,1,1,7.49-7.49Zm1.55,2.62,3.88,3.88-6.42,6.41-3.87-3.87.57-.47.63-.52.91-.78.44-.42c.58-.54,1.13-1.1,1.67-1.67l.42-.45c.27-.29.53-.6.79-.9l.51-.63c.16-.19.32-.38.47-.58ZM79.87,73.45a4.54,4.54,0,0,1-6.34,6.49l-.08-.07L62.19,68.6l6.42-6.41L79.87,73.45ZM70,2.83a5.59,5.59,0,0,0-5.6,5.6,5.5,5.5,0,0,0,.79,2.82l-2.46,2.46A35,35,0,1,0,54,64.38l4.22,4.22,2,2L71.47,81.85A7.34,7.34,0,0,0,81.85,71.47L70.58,60.21l-2-2L64.38,54a34.85,34.85,0,0,0,0-38l2.8-2.8A5.51,5.51,0,0,0,70,14,5.58,5.58,0,0,0,75.4,9.83H84V7H75.4A5.58,5.58,0,0,0,70,2.83Z"/></svg>