<svg id="Capa_1" data-name="Capa 1" xmlns="http://www.w3.org/2000/svg" viewBox="0 0 52 53"><defs><style>.cls-1{fill:#fff;}</style></defs><title>mail</title><path class="cls-1" d="M30.71.69A25.87,25.87,0,0,0,.77,21.34C.58,22.39.42,23.45.24,24.5V28c.24,1.36.43,2.74.73,4.09a25.88,25.88,0,0,0,21.4,19.81c.71.1,1.42.24,2.13.35H28c1.33-.23,2.68-.41,4-.71A25.94,25.94,0,0,0,30.71.69ZM39.6,11.92,35.16,38.75A1.54,1.54,0,0,1,33,39.92l-7.19-3a.5.5,0,0,0-.59.15l-3.67,4.57a1.37,1.37,0,0,1-2.43-.85V36.35a1.92,1.92,0,0,1,.44-1.22l14-17.07a.42.42,0,0,0-.6-.57L16.4,32.22a1.12,1.12,0,0,1-1.16.19L9,29.78a1.25,1.25,0,0,1-.13-2.24l29.3-16.62A1,1,0,0,1,39.6,11.92Z"/></svg>