<svg id="Capa_1" data-name="Capa 1" xmlns="http://www.w3.org/2000/svg" viewBox="0 0 51 51"><defs><style>.cls-1{fill:#fff;}</style></defs><title>telefono</title><path class="cls-1" d="M25.74.22A25.46,25.46,0,1,0,51.2,25.68,25.46,25.46,0,0,0,25.74.22Zm14,36.89a10.09,10.09,0,0,1-.74.72l-1.21,1.09a8.91,8.91,0,0,1-2.53,1.56,9.75,9.75,0,0,1-2.66.69l-.76,0h-.7l-.85-.07a12.16,12.16,0,0,1-3-.72,18.6,18.6,0,0,1-4.23-2.34A28.76,28.76,0,0,1,20,35.41a44.08,44.08,0,0,1-3.25-3.58A32.38,32.38,0,0,1,14,28a19.72,19.72,0,0,1-2.25-5.1,12.8,12.8,0,0,1-.44-2.52c0-.2,0-.4,0-.59v-.44c0-.21,0-.41,0-.62a10.19,10.19,0,0,1,.8-3.26,9.14,9.14,0,0,1,1.4-2.27,9.6,9.6,0,0,1,1.45-1.4c.37-.29.72-.62,1.08-.93a3.13,3.13,0,0,1,.9-.57,1.87,1.87,0,0,1,1.69.12,4.46,4.46,0,0,1,1.25,1.12,18.48,18.48,0,0,1,1.33,1.94,16.91,16.91,0,0,1,1.05,1.8A5.38,5.38,0,0,1,22.76,17a2.76,2.76,0,0,1-.71,2.25c-.34.35-.72.66-1.08,1a13.57,13.57,0,0,1-1.13.87,2.33,2.33,0,0,0-1,1.32,3,3,0,0,0,0,1.43A7.62,7.62,0,0,0,19.79,26a19.43,19.43,0,0,0,1.86,2.56,29.62,29.62,0,0,0,2.22,2.4A11.3,11.3,0,0,0,26,32.6a4.23,4.23,0,0,0,1.53.57,2.27,2.27,0,0,0,1.86-.58,2.72,2.72,0,0,0,.3-.29A11.86,11.86,0,0,1,31.1,31a5.38,5.38,0,0,1,.85-.66,2.87,2.87,0,0,1,2.39-.23,5.74,5.74,0,0,1,1.85,1c.67.54,1.32,1.1,2,1.65a9.18,9.18,0,0,1,1.28,1.29,3.52,3.52,0,0,1,.66,1.12A1.86,1.86,0,0,1,39.76,37.11Z"/></svg>